<svg data-v-423bf9ae="" xmlns="http://www.w3.org/2000/svg" viewBox="0 0 556 90" class="iconLeft"><!----><!----><!----><g data-v-423bf9ae="" id="cdc2a922-f7dd-41d1-bc38-3a1b12737fed" fill="#FFFFFF" transform="matrix(5.6497170676618405,0,0,5.6497170676618405,105.30614328786083,-8.841803409663676)"><path d="M1.06 12.09L1.06 9.18L1.06 7.98Q1.18 6.45 1.70 5.74L1.70 5.74Q2.13 5.09 2.83 4.71L2.83 4.71Q3.29 4.42 4.14 4.40L4.14 4.40Q4.68 4.40 5.24 4.60Q5.80 4.81 6.11 5.15Q6.42 5.49 6.73 6.17L6.73 6.17Q6.90 5.74 7.45 5.15L7.45 5.15Q7.72 4.92 8.14 4.70L8.14 4.70Q8.43 4.52 9.47 4.40L9.47 4.40Q10.25 4.40 10.97 4.79Q11.69 5.17 11.98 5.88Q12.27 6.59 12.27 7.99L12.27 7.99L12.27 12.09L11.29 12.09L11.29 7.99Q11.29 6.79 11.12 6.34Q10.94 5.89 10.53 5.61Q10.11 5.33 9.52 5.33L9.52 5.33Q8.42 5.41 7.63 6.41L7.63 6.41Q7.32 6.83 7.16 8.29L7.16 8.29L7.16 12.09L6.20 12.09L6.20 8.24Q6.20 6.89 5.90 6.40Q5.60 5.91 5.18 5.62Q4.76 5.33 4.14 5.33L4.14 5.33Q3.47 5.33 2.99 5.67Q2.51 6.02 2.24 6.70Q1.96 7.38 2.02 8.91L2.02 8.91L2.02 12.09L1.06 12.09ZM20.60 9.42L20.60 9.42L21.41 9.85Q21.02 10.64 20.49 11.12Q19.97 11.59 19.31 11.84Q18.66 12.09 17.83 12.09L17.83 12.09Q16.00 12.09 14.96 10.89Q13.93 9.69 13.93 8.18L13.93 8.18Q13.93 6.75 14.81 5.64L14.81 5.64Q15.91 4.22 17.78 4.22L17.78 4.22Q19.69 4.22 20.84 5.67L20.84 5.67Q21.65 6.70 21.66 8.23L21.66 8.23L14.92 8.23Q14.95 9.54 15.76 10.38Q16.56 11.22 17.75 11.22L17.75 11.22Q18.32 11.22 18.86 11.02Q19.40 10.81 19.78 10.49Q20.16 10.16 20.60 9.42ZM15.03 7.40L20.60 7.40Q20.41 6.63 20.04 6.17Q19.67 5.71 19.07 5.42Q18.46 5.14 17.79 5.14L17.79 5.14Q16.69 5.14 15.89 5.85L15.89 5.85Q15.32 6.37 15.03 7.40L15.03 7.40ZM30.88 10.38L30.88 10.38Q30.88 11.96 30.60 12.69L30.60 12.69Q30.23 13.73 29.29 14.28Q28.35 14.84 27.04 14.84L27.04 14.84Q26.07 14.84 25.30 14.57Q24.53 14.29 24.05 13.84Q23.56 13.38 23.16 12.50L23.16 12.50L24.21 12.50Q24.64 13.24 25.31 13.60Q25.98 13.95 26.99 13.95L26.99 13.95Q27.97 13.95 28.65 13.58Q29.33 13.21 29.62 12.66Q29.91 12.11 29.91 10.86L29.91 10.86L29.91 10.48Q29.37 11.17 28.58 11.54Q27.79 11.91 26.91 11.91L26.91 11.91Q25.88 11.91 24.97 11.40Q24.06 10.88 23.56 10.01Q23.06 9.14 23.06 8.10L23.06 8.10Q23.06 7.06 23.58 6.16Q24.10 5.26 25.01 4.74Q25.93 4.22 26.93 4.22L26.93 4.22Q27.78 4.22 28.47 4.48L28.47 4.48Q29.05 4.69 29.85 5.29L29.85 5.29Q30.52 5.84 30.90 7.40L30.90 7.40Q30.88 7.61 30.88 10.38ZM27.06 5.15L27.06 5.15Q26.24 5.15 25.54 5.54Q24.83 5.94 24.44 6.64Q24.04 7.33 24.04 8.15L24.04 8.15Q24.04 9.39 24.86 10.19Q25.69 11.00 27.00 11.00L27.00 11.00Q28.34 11.00 29.15 10.20Q29.96 9.40 29.96 8.09L29.96 8.09Q29.96 7.25 29.58 6.58Q29.21 5.92 28.53 5.53Q27.85 5.15 27.06 5.15ZM36.48 4.22L36.48 4.22Q38.21 4.22 39.35 5.47L39.35 5.47Q40.40 6.61 40.40 8.18L40.40 8.18Q40.41 12.07 40.40 12.13L40.40 12.13Q39.74 12.13 39.38 12.13L39.38 12.13Q39.38 12.08 39.38 10.42L39.38 10.42Q38.58 11.92 36.48 12.09L36.48 12.09Q34.75 12.09 33.66 10.92Q32.57 9.75 32.57 8.18L32.57 8.18Q32.57 6.62 33.61 5.48L33.61 5.48Q34.75 4.22 36.48 4.22ZM36.48 5.16L36.48 5.16Q35.28 5.16 34.42 6.05Q33.56 6.94 33.56 8.20L33.56 8.20Q33.56 9.01 34.00 9.76Q34.44 10.51 35.49 11.03L35.49 11.03Q38.13 11.62 39.25 8.63L39.25 8.63Q39.31 7.68 39.04 6.80L39.04 6.80Q38.85 6.41 38.51 6.05L38.51 6.05Q37.67 5.16 36.48 5.16ZM42.26 12.09L42.26 9.18L42.26 7.98Q42.38 6.45 42.90 5.74L42.90 5.74Q43.33 5.09 44.03 4.71L44.03 4.71Q44.49 4.42 45.34 4.40L45.34 4.40Q45.88 4.40 46.44 4.60Q47.00 4.81 47.31 5.15Q47.62 5.49 47.93 6.17L47.93 6.17Q48.10 5.74 48.65 5.15L48.65 5.15Q48.92 4.92 49.34 4.70L49.34 4.70Q49.63 4.52 50.67 4.40L50.67 4.40Q51.45 4.40 52.17 4.79Q52.89 5.17 53.18 5.88Q53.47 6.59 53.47 7.99L53.47 7.99L53.47 12.09L52.49 12.09L52.49 7.99Q52.49 6.79 52.32 6.34Q52.14 5.89 51.73 5.61Q51.31 5.33 50.72 5.33L50.72 5.33Q49.62 5.41 48.83 6.41L48.83 6.41Q48.52 6.83 48.36 8.29L48.36 8.29L48.36 12.09L47.40 12.09L47.40 8.24Q47.40 6.89 47.10 6.40Q46.80 5.91 46.38 5.62Q45.96 5.33 45.34 5.33L45.34 5.33Q44.67 5.33 44.19 5.67Q43.71 6.02 43.44 6.70Q43.16 7.38 43.22 8.91L43.22 8.91L43.22 12.09L42.26 12.09ZM61.80 9.42L61.80 9.42L62.61 9.85Q62.22 10.64 61.69 11.12Q61.17 11.59 60.51 11.84Q59.86 12.09 59.03 12.09L59.03 12.09Q57.20 12.09 56.16 10.89Q55.13 9.69 55.13 8.18L55.13 8.18Q55.13 6.75 56.01 5.64L56.01 5.64Q57.11 4.22 58.98 4.22L58.98 4.22Q60.89 4.22 62.04 5.67L62.04 5.67Q62.85 6.70 62.86 8.23L62.86 8.23L56.12 8.23Q56.15 9.54 56.96 10.38Q57.76 11.22 58.95 11.22L58.95 11.22Q59.52 11.22 60.06 11.02Q60.60 10.81 60.98 10.49Q61.36 10.16 61.80 9.42ZM56.23 7.40L61.80 7.40Q61.61 6.63 61.24 6.17Q60.87 5.71 60.27 5.42Q59.66 5.14 58.99 5.14L58.99 5.14Q57.89 5.14 57.09 5.85L57.09 5.85Q56.52 6.37 56.23 7.40L56.23 7.40ZM64.65 12.09L64.65 9.24L64.63 8.44Q64.61 7.85 64.68 7.44L64.68 7.44Q64.83 6.15 65.34 5.55L65.34 5.55Q65.83 5.02 66.34 4.74L66.34 4.74Q67.19 4.38 68.28 4.40L68.28 4.40Q69.13 4.40 69.85 4.82Q70.57 5.25 70.88 5.97Q71.18 6.69 71.18 8.23L71.18 8.23L71.18 12.09L70.23 12.09L70.23 8.51Q70.23 7.21 70.12 6.77L70.12 6.77Q69.95 6.03 69.44 5.72Q68.93 5.41 67.94 5.41L67.94 5.41Q67.07 5.41 66.38 5.91Q65.70 6.42 65.75 7.29L65.75 7.29Q65.62 7.85 65.62 9.34L65.62 9.34L65.62 12.09L64.65 12.09ZM73.11 8.02L73.11 4.41L74.08 4.41L74.08 7.91Q74.08 9.19 74.22 9.67L74.22 9.67Q74.42 10.36 75.00 10.76Q75.58 11.16 76.40 11.16L76.40 11.16Q77.21 11.16 77.77 10.77Q78.33 10.38 78.54 9.75L78.54 9.75Q78.69 9.32 78.69 7.91L78.69 7.91L78.69 4.41L79.67 4.41L79.67 8.09Q79.67 9.65 79.31 10.43Q78.94 11.21 78.22 11.65Q77.49 12.09 76.40 12.09L76.40 12.09Q75.30 12.09 74.57 11.65Q73.83 11.21 73.47 10.41Q73.11 9.62 73.11 8.02L73.11 8.02Z"></path></g><!----><g data-v-423bf9ae="" id="b306f359-8e48-4421-ad51-5195183b7431" transform="matrix(2.852072528086791,0,0,2.852072528086791,0.3618419448213217,-0.41116010653409063)" stroke="none" fill="#0095FF"><path d="M16 23.787L8.102 16 16 8.213 23.898 16 16 23.787zM9.525 16L16 22.383 22.475 16 16 9.617 9.525 16z"></path><path d="M15.915 31.778L-.005 16.084 16.085.222l15.92 15.694-16.09 15.862zM1.419 16.084l14.496 14.29 14.666-14.458-14.496-14.29L1.419 16.084z"></path><path d="M15.5.924h1v30.152h-1z"></path></g><!----></svg>