<svg data-v-423bf9ae="" xmlns="http://www.w3.org/2000/svg" viewBox="0 0 366.92909202197643 60" class="font"><!----><!----><!----><g data-v-423bf9ae="" id="a3a34015-9c3d-4cdd-a8fe-05d04a6abb6f" fill="white" transform="matrix(5.249343691865918,0,0,5.249343691865918,-4.566931586142772,-33.2808398074162)"><path d="M4.65 6.34C3.70 6.34 3.07 6.59 2.59 7.08L2.51 6.51L0.87 6.51L0.87 14.92L2.76 14.92L2.76 9.39C2.76 8.44 3.26 8.01 4.05 8.01C4.98 8.01 5.29 8.47 5.29 9.62L5.29 14.92L7.18 14.92L7.18 9.60C7.18 8.46 7.69 8.01 8.48 8.01C9.42 8.01 9.73 8.47 9.73 9.58L9.73 14.92L11.62 14.92L11.62 9.38C11.62 7.28 10.89 6.34 8.95 6.34C7.92 6.34 7.13 6.69 6.66 7.34C6.24 6.65 5.59 6.34 4.65 6.34ZM17.63 12.40C17.58 13.13 17.28 13.54 16.31 13.54C15.34 13.54 14.97 13.02 14.97 11.98L14.97 11.28L19.45 11.28L19.45 9.55C19.45 7.34 18.42 6.34 16.31 6.34C14.15 6.34 13.12 7.49 13.12 9.58L13.12 11.79C13.12 14.11 14.14 15.09 16.32 15.09C18.48 15.09 19.32 14.15 19.38 12.40ZM16.32 7.91C17.29 7.91 17.65 8.43 17.65 9.53L17.65 9.84L14.97 9.84L14.97 9.59C14.97 8.39 15.34 7.91 16.32 7.91ZM23.97 16.24C23.07 16.24 22.76 15.86 22.72 15.22L20.92 15.22C20.96 16.80 21.73 17.77 23.91 17.77C25.91 17.77 27.12 16.90 27.12 14.45L27.12 6.51L25.31 6.51L25.26 6.93C24.88 6.57 24.32 6.34 23.51 6.34C21.98 6.34 20.75 7.32 20.75 9.55L20.75 11.33C20.75 13.48 21.64 14.63 23.45 14.63C24.16 14.63 24.81 14.43 25.24 14.06L25.24 14.62C25.24 15.81 24.86 16.24 23.97 16.24ZM25.24 11.58C25.24 12.56 24.77 12.98 23.93 12.98C23.02 12.98 22.64 12.49 22.64 11.35L22.64 9.63C22.64 8.43 23.13 8.01 23.94 8.01C24.70 8.01 25.24 8.39 25.24 9.49ZM33.24 14.92L34.90 14.92L34.90 9.24C34.90 7.07 33.68 6.34 31.89 6.34C29.92 6.34 28.88 7.17 28.88 9.24L30.58 9.24C30.58 8.26 31.02 7.90 31.88 7.90C32.70 7.90 33.11 8.32 33.11 9.28L33.11 10.14C32.72 10.09 32.26 10.05 31.89 10.05C29.60 10.05 28.63 11.00 28.63 12.70C28.63 14.25 29.62 15.09 31.05 15.09C31.99 15.09 32.72 14.80 33.17 14.28ZM33.11 12.05C33.11 13.01 32.42 13.54 31.65 13.54C30.88 13.54 30.49 13.19 30.49 12.54C30.49 11.77 30.91 11.37 32.05 11.37C32.31 11.37 32.82 11.40 33.11 11.45ZM40.32 6.34C39.37 6.34 38.74 6.59 38.26 7.08L38.18 6.51L36.54 6.51L36.54 14.92L38.43 14.92L38.43 9.39C38.43 8.44 38.93 8.01 39.72 8.01C40.66 8.01 40.96 8.47 40.96 9.62L40.96 14.92L42.85 14.92L42.85 9.60C42.85 8.46 43.36 8.01 44.16 8.01C45.09 8.01 45.40 8.47 45.40 9.58L45.40 14.92L47.29 14.92L47.29 9.38C47.29 7.28 46.56 6.34 44.62 6.34C43.60 6.34 42.80 6.69 42.34 7.34C41.92 6.65 41.26 6.34 40.32 6.34ZM53.30 12.40C53.26 13.13 52.95 13.54 51.98 13.54C51.02 13.54 50.64 13.02 50.64 11.98L50.64 11.28L55.12 11.28L55.12 9.55C55.12 7.34 54.10 6.34 51.98 6.34C49.83 6.34 48.79 7.49 48.79 9.58L48.79 11.79C48.79 14.11 49.81 15.09 52.00 15.09C54.15 15.09 54.99 14.15 55.05 12.40ZM52.00 7.91C52.96 7.91 53.33 8.43 53.33 9.53L53.33 9.84L50.64 9.84L50.64 9.59C50.64 8.39 51.02 7.91 52.00 7.91ZM56.60 6.51L56.60 14.92L58.49 14.92L58.49 9.42C58.49 8.44 58.98 8.01 59.78 8.01C60.72 8.01 61.03 8.47 61.03 9.58L61.03 14.92L62.92 14.92L62.92 9.38C62.92 7.34 62.17 6.34 60.35 6.34C59.46 6.34 58.76 6.59 58.32 7.10L58.24 6.51ZM69.13 14.92L70.77 14.92L70.77 6.51L68.88 6.51L68.88 12.03C68.88 13.01 68.42 13.44 67.62 13.44C66.68 13.44 66.40 12.96 66.40 11.87L66.40 6.51L64.51 6.51L64.51 12.07C64.51 14.10 65.23 15.09 66.96 15.09C67.96 15.09 68.57 14.84 69.05 14.35Z"></path></g><!----><!----></svg>